<svg width="94" height="17" viewBox="0 0 94 17" fill="none" xmlns="http://www.w3.org/2000/svg">
<g id="Group 8">
<path id="Vector" d="M92.0392 3.97724H90.2345V0.875201C90.2345 0.393941 90.6268 0.00160899 91.1081 0.00160899C91.6521 0.00160899 92.2432 -0.0297775 92.7611 0.184697C93.3731 0.435789 93.7498 1.05829 93.7498 1.71217V2.26144C93.7498 3.20827 92.9808 3.972 92.0392 3.972V3.97724Z" fill="white"/>
<path id="Vector_2" d="M77.3189 8.99908C77.3189 5.09669 80.7453 3.96677 83.7741 3.96677C86.8029 3.96677 90.2292 5.09145 90.2292 8.99908V11.4525C90.2292 15.3548 86.7349 16.4848 83.7741 16.4848C80.8133 16.4848 77.3189 15.3601 77.3189 11.4525V8.99908ZM85.7567 8.83691C85.7567 7.55006 84.7314 7.03742 83.7741 7.03742C82.8168 7.03742 81.7915 7.54483 81.7915 8.83691V11.6146C81.7915 12.9015 82.8168 13.4141 83.7741 13.4141C84.7314 13.4141 85.7567 12.9067 85.7567 11.6146V8.83691Z" fill="white"/>
<path id="Vector_3" d="M63.3834 16.1814H59.8419L59.617 15.0044C58.7486 15.9303 57.4827 16.49 55.8558 16.49C52.916 16.49 50.426 15.313 50.426 11.4891V8.98862C50.426 5.16469 52.9212 3.9877 55.8558 3.9877C57.0799 3.9877 58.0843 4.31203 58.8637 4.84037V1.81157C58.8637 0.61888 59.9518 0.00161171 61.134 0.00161171C62.3162 0.00161171 63.3834 0.61888 63.3834 1.81157V16.1814ZM55.0136 11.7402C55.0136 12.9747 56.1488 13.388 56.9282 13.388C57.7076 13.388 58.8637 12.9695 58.8637 11.7402V8.64337C58.8637 7.48207 57.6867 7.0845 56.9282 7.0845C56.1697 7.0845 55.0136 7.50299 55.0136 8.7323V11.7402Z" fill="white"/>
<path id="Vector_4" d="M70.3512 16.4638C65.9571 16.4638 64.3093 13.027 64.2726 10.7149V6.26322C64.2726 4.99729 65.277 3.96677 66.522 3.96677C67.767 3.96677 68.7714 4.99206 68.7714 6.26322V10.6207C68.8603 11.8709 69.9065 11.8709 70.3512 11.8709C70.7958 11.8709 71.842 11.8709 71.931 10.6207V6.26322C71.931 4.99729 72.9353 3.96677 74.1803 3.96677C75.4253 3.96677 76.4297 4.99206 76.4297 6.26322V10.6783C76.3931 13.027 74.7453 16.4638 70.3512 16.4638ZM71.931 10.5946C71.931 10.5946 71.931 10.5946 71.931 10.605C71.931 10.605 71.931 10.5998 71.931 10.5946Z" fill="white"/>
<path id="Vector_5" d="M18.1555 8.98862C18.1555 5.08623 21.5818 3.95631 24.6106 3.95631C27.6394 3.95631 31.0658 5.081 31.0658 8.98862V11.442C31.0658 15.3444 27.5714 16.4743 24.6106 16.4743C21.6498 16.4743 18.1555 15.3496 18.1555 11.442V8.98862ZM26.5932 8.82645C26.5932 7.53961 25.5679 7.02696 24.6106 7.02696C23.6533 7.02696 22.628 7.53438 22.628 8.82645V11.6042C22.628 12.891 23.6533 13.4037 24.6106 13.4037C25.5679 13.4037 26.5932 12.8962 26.5932 11.6042V8.82645Z" fill="white"/>
<path id="Vector_6" d="M40.5287 16.1814L40.3509 15.4176C39.5035 16.0715 38.3003 16.49 36.9664 16.49H36.4747C34.6281 16.49 31.9131 15.6739 31.9131 12.6504C31.9131 9.62681 34.4711 8.84738 37.3692 8.84738H39.6604C39.6185 7.26236 38.6822 6.97465 37.6098 6.97465C37.0972 6.97465 36.6525 7.04788 36.1189 7.17343C35.7632 7.26236 35.4755 7.39314 35.0727 7.53961C34.2724 7.86917 33.0901 7.61284 32.6926 6.88572C32.2689 6.1586 32.6246 5.41055 33.404 4.93976C34.581 4.22833 36.4537 3.95631 37.9655 3.95631C41.1931 3.95631 44.044 4.88221 44.044 9.32341V16.1814H40.5287ZM39.6604 11.5257H37.636C36.7885 11.5257 36.323 11.8709 36.323 12.6347C36.323 13.3984 36.7885 13.6914 37.568 13.6914H37.8818C38.7031 13.6914 39.6604 13.2938 39.6604 12.3627V11.5257Z" fill="white"/>
<path id="Vector_7" d="M8.73942 0.503792H6.20234C3.53449 0.503792 2.7289 1.28845 2.7289 3.38612V13.0061H3.46649C3.37233 12.891 3.32525 12.7498 3.33048 12.6085C3.34094 12.4202 3.45079 12.2424 3.62342 12.1325C3.75419 12.0488 3.91636 12.0017 4.08898 12.0017C4.28777 12.0017 4.47608 12.0645 4.61732 12.1796L5.63216 13.0061H9.74379C8.85974 12.19 6.62606 9.9459 6.62606 8.15164C6.62606 5.91274 8.17969 4.6782 10.0995 4.6782C12.0193 4.6782 13.5729 5.91274 13.5729 8.15164C13.5729 10.3905 10.0995 13.3252 10.0995 13.3252L5.51184 13.3356L4.40808 12.4307C4.25115 12.2999 3.9739 12.2894 3.79604 12.4045C3.61819 12.5196 3.60249 12.7184 3.75943 12.8492L4.35054 13.3356H1.20666C0.997412 13.3356 0.830017 13.456 0.830017 13.6077C0.830017 13.7594 0.997412 13.8797 1.20666 13.8797H3.69142C3.81174 13.8797 3.91113 13.9529 3.91113 14.0418C3.91113 14.1308 3.81174 14.204 3.69142 14.204H1.20666C0.997412 14.204 0.830017 14.3243 0.830017 14.476C0.830017 14.6277 0.997412 14.748 1.20666 14.748H3.69142C3.81174 14.748 3.91113 14.8213 3.91113 14.9102C3.91113 14.9991 3.81174 15.0724 3.69142 15.0724H1.20666C0.997412 15.0724 0.830017 15.1927 0.830017 15.3444C0.830017 15.4961 0.997412 15.6164 1.20666 15.6164H3.69142C3.81174 15.6164 3.91113 15.6896 3.91113 15.7786C3.91113 15.8675 3.81174 15.9407 3.69142 15.9407H1.20666C0.997412 15.9407 0.830017 16.061 0.830017 16.2127C0.830017 16.3644 0.997412 16.4848 1.20666 16.4848H8.73942C9.67055 16.4848 10.518 16.4638 11.5067 16.2494C12.4953 16.0349 13.3271 15.1613 13.9757 14.565C14.6244 13.9686 15.3724 13.1003 15.8119 12.3051C16.2513 11.51 16.6436 10.0401 16.6436 9.35479V7.24666C16.6436 2.18297 12.5895 0.503792 8.73942 0.503792Z" fill="white"/>
</g>
</svg>
