<svg width="38" height="38" viewBox="0 0 38 38" fill="none" xmlns="http://www.w3.org/2000/svg">
<path d="M27.0773 0H10.9148C4.88357 0 0 4.88357 0 10.9148V27.0852C0 33.1085 4.88357 38 10.9148 38H27.0852C33.1085 38 38 33.1164 38 27.0852V10.9148C38 4.89148 33.1164 0 27.0852 0H27.0773ZM30.6153 20.8877C30.6153 28.5574 24.4812 31.0902 18.6557 31.0902H13.6376C9.593 31.0902 8.382 29.9029 8.382 26.729V11.2631C8.382 8.08915 9.593 6.9019 13.6376 6.9019H18.6557C24.4812 6.9019 30.6153 9.44262 30.6153 17.1044V20.8798V20.8877Z" fill="url(#paint0_linear_57_232)"/>
<path d="M19.2177 11.7222C15.6006 11.7222 12.672 14.6507 12.672 18.2679C12.672 18.4974 12.6799 18.719 12.7037 18.9407C13.044 23.4601 16.8116 27.0219 21.426 27.0219V24.4258C23.9588 23.5155 25.7714 21.1094 25.7714 18.2679C25.7714 14.6507 22.8428 11.7222 19.2256 11.7222H19.2177Z" fill="url(#paint1_linear_57_232)"/>
<defs>
<linearGradient id="paint0_linear_57_232" x1="31.645" y1="9.41727e-07" x2="6.355" y2="38" gradientUnits="userSpaceOnUse">
<stop stop-color="#EB5F4B"/>
<stop offset="1" stop-color="#FFE893"/>
</linearGradient>
<linearGradient id="paint1_linear_57_232" x1="23.5807" y1="11.7222" x2="12.8837" y2="25.4836" gradientUnits="userSpaceOnUse">
<stop stop-color="#EB5F4B"/>
<stop offset="1" stop-color="#FFE893"/>
</linearGradient>
</defs>
</svg>
