<svg width="46" height="46" viewBox="0 0 46 46" fill="none" xmlns="http://www.w3.org/2000/svg">
<path d="M23.0076 0H15.6275C7.86702 0 5.52365 2.25859 5.52365 8.29656V35.9869H7.6692C7.3953 35.6556 7.25835 35.2491 7.27357 34.8426C7.304 34.3005 7.62355 33.7885 8.1257 33.4723C8.50612 33.2314 8.97784 33.0959 9.47999 33.0959C10.0582 33.0959 10.606 33.2766 11.0169 33.6079L13.9689 35.9869H25.9292C23.3576 33.638 16.8601 27.1784 16.8601 22.0137C16.8601 15.5692 21.3794 12.0157 26.9639 12.0157C32.5485 12.0157 37.0678 15.5692 37.0678 22.0137C37.0678 28.4583 26.9639 36.9054 26.9639 36.9054L13.6189 36.9355L10.4082 34.3306C9.9517 33.9542 9.14522 33.9241 8.62785 34.2553C8.11049 34.5866 8.06484 35.1588 8.52134 35.5352L10.2408 36.9355H1.0956C0.486934 36.9355 0 37.2818 0 37.7185C0 38.1552 0.486934 38.5015 1.0956 38.5015H8.32352C8.6735 38.5015 8.96262 38.7123 8.96262 38.9683C8.96262 39.2242 8.6735 39.435 8.32352 39.435H1.0956C0.486934 39.435 0 39.7813 0 40.218C0 40.6547 0.486934 41.001 1.0956 41.001H8.32352C8.6735 41.001 8.96262 41.2118 8.96262 41.4678C8.96262 41.7237 8.6735 41.9345 8.32352 41.9345H1.0956C0.486934 41.9345 0 42.2809 0 42.7175C0 43.1542 0.486934 43.5005 1.0956 43.5005H8.32352C8.6735 43.5005 8.96262 43.7113 8.96262 43.9673C8.96262 44.2232 8.6735 44.434 8.32352 44.434H1.0956C0.486934 44.434 0 44.7804 0 45.217C0 45.6537 0.486934 46 1.0956 46H23.0076C25.7162 46 28.1813 45.9398 31.0572 45.3224C33.9332 44.7051 36.3526 42.1905 38.2395 40.474C40.1264 38.7574 42.3023 36.2579 43.5805 33.9692C44.8587 31.6805 46 27.4494 46 25.4769V19.4088C46 4.83339 34.2071 0 23.0076 0Z" fill="white"/>
</svg>
