<svg width="137" height="25" viewBox="0 0 137 25" fill="none" xmlns="http://www.w3.org/2000/svg">
<path d="M133.86 5.83704H131.211V1.28445C131.211 0.578152 131.787 0.00236138 132.493 0.00236138C133.292 0.00236138 134.159 -0.0437018 134.919 0.271063C135.817 0.639569 136.37 1.55316 136.37 2.51281V3.31891C136.37 4.70849 135.242 5.82936 133.86 5.82936V5.83704Z" fill="white"/>
<path d="M112.256 13.2071C112.256 7.47993 117.285 5.82166 121.73 5.82166C126.175 5.82166 131.203 7.47225 131.203 13.2071V16.8077C131.203 22.5349 126.075 24.1932 121.73 24.1932C117.384 24.1932 112.256 22.5426 112.256 16.8077V13.2071ZM124.639 12.9691C124.639 11.0805 123.135 10.3282 121.73 10.3282C120.325 10.3282 118.82 11.0729 118.82 12.9691V17.0457C118.82 18.9343 120.325 19.6867 121.73 19.6867C123.135 19.6867 124.639 18.942 124.639 17.0457V12.9691Z" fill="white"/>
<path d="M91.804 23.7479H86.6066L86.2764 22.0205C85.002 23.3794 83.1441 24.2009 80.7565 24.2009C76.4419 24.2009 72.7876 22.4735 72.7876 16.8615V13.1918C72.7876 7.57972 76.4496 5.85235 80.7565 5.85235C82.553 5.85235 84.027 6.32833 85.1709 7.10373V2.65863C85.1709 0.908229 86.7678 0.00231934 88.5028 0.00231934C90.2379 0.00231934 91.804 0.908229 91.804 2.65863V23.7479ZM79.5205 17.23C79.5205 19.0418 81.1865 19.6483 82.3304 19.6483C83.4743 19.6483 85.1709 19.0341 85.1709 17.23V12.6851C85.1709 10.9807 83.4436 10.3973 82.3304 10.3973C81.2172 10.3973 79.5205 11.0114 79.5205 12.8156V17.23Z" fill="white"/>
<path d="M102.03 24.1625C95.5812 24.1625 93.1629 19.1186 93.1091 15.7252V9.19195C93.1091 7.33406 94.5832 5.82166 96.4103 5.82166C98.2375 5.82166 99.7115 7.32639 99.7115 9.19195V15.5871C99.842 17.4219 101.377 17.4219 102.03 17.4219C102.683 17.4219 104.218 17.4219 104.349 15.5871V9.19195C104.349 7.33406 105.823 5.82166 107.65 5.82166C109.477 5.82166 110.951 7.32639 110.951 9.19195V15.6715C110.897 19.1186 108.479 24.1625 102.03 24.1625ZM104.349 15.5487C104.349 15.5487 104.349 15.5487 104.349 15.564C104.349 15.564 104.349 15.5563 104.349 15.5487Z" fill="white"/>
<path d="M25.427 13.1917C25.427 7.46455 30.4556 5.80627 34.9007 5.80627C39.3458 5.80627 44.3743 7.45687 44.3743 13.1917V16.7924C44.3743 22.5195 39.246 24.1778 34.9007 24.1778C30.5554 24.1778 25.427 22.5272 25.427 16.7924V13.1917ZM37.8103 12.9538C37.8103 11.0652 36.3056 10.3128 34.9007 10.3128C33.4957 10.3128 31.991 11.0575 31.991 12.9538V17.0303C31.991 18.9189 33.4957 19.6713 34.9007 19.6713C36.3056 19.6713 37.8103 18.9266 37.8103 17.0303V12.9538Z" fill="white"/>
<path d="M58.2622 23.7479L58.0012 22.627C56.7575 23.5867 54.9917 24.2009 53.034 24.2009H52.3124C49.6023 24.2009 45.6179 23.0032 45.6179 18.5658C45.6179 14.1284 49.372 12.9845 53.6252 12.9845H56.9878C56.9264 10.6583 55.5522 10.236 53.9783 10.236C53.226 10.236 52.5734 10.3435 51.7903 10.5278C51.2683 10.6583 50.846 10.8502 50.2549 11.0652C49.0803 11.5488 47.3452 11.1726 46.7618 10.1055C46.1399 9.03838 46.662 7.94054 47.8059 7.24959C49.5332 6.20549 52.2817 5.80627 54.5004 5.80627C59.2372 5.80627 63.4213 7.16514 63.4213 13.6831V23.7479H58.2622ZM56.9878 16.9152H54.0167C52.773 16.9152 52.0897 17.4219 52.0897 18.5428C52.0897 19.6636 52.773 20.0935 53.9169 20.0935H54.3775C55.5829 20.0935 56.9878 19.5101 56.9878 18.1435V16.9152Z" fill="white"/>
<path d="M11.6079 0.73938H7.88449C3.96911 0.73938 2.78682 1.89096 2.78682 4.96952V19.0879H3.86931C3.73112 18.919 3.66203 18.7117 3.6697 18.5044C3.68506 18.228 3.84628 17.967 4.09963 17.8058C4.29156 17.683 4.52955 17.6139 4.7829 17.6139C5.07463 17.6139 5.35101 17.706 5.55829 17.8749L7.04767 19.0879H13.082C11.7845 17.8903 8.50634 14.5967 8.50634 11.9635C8.50634 8.67761 10.7865 6.86579 13.604 6.86579C16.4215 6.86579 18.7017 8.67761 18.7017 11.9635C18.7017 15.2493 13.604 19.5562 13.604 19.5562L6.8711 19.5716L5.25121 18.2434C5.02089 18.0515 4.614 18.0361 4.35297 18.205C4.09195 18.3739 4.06892 18.6656 4.29923 18.8576L5.16676 19.5716H0.552759C0.245671 19.5716 0 19.7481 0 19.9708C0 20.1934 0.245671 20.37 0.552759 20.37H4.19943C4.37601 20.37 4.52187 20.4775 4.52187 20.608C4.52187 20.7385 4.37601 20.846 4.19943 20.846H0.552759C0.245671 20.846 0 21.0226 0 21.2452C0 21.4678 0.245671 21.6444 0.552759 21.6444H4.19943C4.37601 21.6444 4.52187 21.7519 4.52187 21.8824C4.52187 22.0129 4.37601 22.1204 4.19943 22.1204H0.552759C0.245671 22.1204 0 22.297 0 22.5196C0 22.7422 0.245671 22.9188 0.552759 22.9188H4.19943C4.37601 22.9188 4.52187 23.0263 4.52187 23.1568C4.52187 23.2873 4.37601 23.3948 4.19943 23.3948H0.552759C0.245671 23.3948 0 23.5714 0 23.794C0 24.0167 0.245671 24.1932 0.552759 24.1932H11.6079C12.9745 24.1932 14.2182 24.1625 15.6692 23.8478C17.1202 23.533 18.3408 22.2509 19.2928 21.3757C20.2448 20.5005 21.3426 19.2261 21.9875 18.0592C22.6324 16.8922 23.2082 14.7349 23.2082 13.7292V10.6353C23.2082 3.20376 17.2584 0.73938 11.6079 0.73938Z" fill="white"/>
</svg>
