<svg width="36" height="38" viewBox="0 0 36 38" fill="none" xmlns="http://www.w3.org/2000/svg">
<path fill-rule="evenodd" clip-rule="evenodd" d="M12.6034 0C11.9559 0 11.431 0.470101 11.431 1.05L9.67241 1.05C9.02491 1.05 8.5 1.5201 8.5 2.1V19.95C8.5 20.5299 9.02491 21 9.67241 21H24.3276C24.9751 21 25.5 20.5299 25.5 19.95V2.1C25.5 1.5201 24.9751 1.05 24.3276 1.05H22.569C22.569 0.470101 22.0441 0 21.3966 0H12.6034ZM11.431 2.1C11.431 2.6799 11.9559 3.15 12.6034 3.15H21.3966C22.0441 3.15 22.569 2.6799 22.569 2.1H24.3276V19.95H9.67241L9.67241 2.1H11.431Z" fill="white"/>
<path d="M11.5 6H22.5V7H11.5V6Z" fill="white"/>
<path d="M11.5 9H22.5V10H11.5V9Z" fill="white"/>
<path d="M11.5 12H22.5V13H11.5V12Z" fill="white"/>
<path d="M11.5 15H22.5V16H11.5V15Z" fill="white"/>
<path fill-rule="evenodd" clip-rule="evenodd" d="M26.9286 2C27.2442 2 27.5 2.24742 27.5 2.55263V22.4474C27.5 22.7526 27.2442 23 26.9286 23H12.0714C11.7558 23 11.5 22.7526 11.5 22.4474C11.5 22.1422 11.7558 21.8947 12.0714 21.8947H26.3571V2.55263C26.3571 2.24742 26.613 2 26.9286 2Z" fill="white"/>
<path d="M4.26 33.31H1.64V35.14C1.64 35.42 1.62 35.65 1.58 35.83C1.54667 36.0033 1.49667 36.1433 1.43 36.25C1.36333 36.3567 1.28667 36.43 1.2 36.47C1.11333 36.51 1.02 36.53 0.92 36.53H0.78C0.593333 36.53 0.5 36.4333 0.5 36.24V29.46H1.64V32.43H4.26V29.46H5.4V35.33C5.4 35.57 5.37667 35.77 5.33 35.93C5.29 36.0833 5.23667 36.2033 5.17 36.29C5.10333 36.3833 5.02667 36.4467 4.94 36.48C4.86 36.5133 4.78 36.53 4.7 36.53H4.56C4.36 36.53 4.26 36.4333 4.26 36.24V33.31ZM7.78656 35.33C7.78656 36.13 7.55656 36.53 7.09656 36.53H6.93656C6.7499 36.53 6.65656 36.4333 6.65656 36.24V29.46H7.78656V35.33ZM12.7366 34.99C12.6699 35.2633 12.5666 35.4933 12.4266 35.68C12.2932 35.8667 12.1366 36.0167 11.9566 36.13C11.7699 36.25 11.5699 36.34 11.3566 36.4C11.1499 36.4533 10.9432 36.4867 10.7366 36.5H10.5466H10.4466C10.3332 36.5 10.1766 36.4933 9.97656 36.48C9.77656 36.4667 9.5799 36.4367 9.38656 36.39C9.19323 36.35 9.02323 36.2933 8.87656 36.22C8.7299 36.14 8.65656 36.0333 8.65656 35.9C8.65656 35.8667 8.66323 35.8167 8.67656 35.75C8.6899 35.6833 8.7099 35.6167 8.73656 35.55C8.76323 35.4833 8.79656 35.4267 8.83656 35.38C8.87656 35.3267 8.92323 35.3 8.97656 35.3C9.0299 35.3 9.09656 35.31 9.17656 35.33C9.47656 35.4033 9.71656 35.4567 9.89656 35.49C10.0832 35.5167 10.2232 35.53 10.3166 35.53C10.4166 35.53 10.5466 35.5167 10.7066 35.49C10.8666 35.4633 11.0199 35.41 11.1666 35.33C11.3132 35.2567 11.4399 35.1567 11.5466 35.03C11.6532 34.8967 11.7066 34.73 11.7066 34.53C11.7066 34.3233 11.6699 34.16 11.5966 34.04C11.5299 33.9133 11.4332 33.8067 11.3066 33.72C11.1799 33.6333 11.0232 33.5533 10.8366 33.48C10.6566 33.4 10.4532 33.3033 10.2266 33.19C9.7999 33.0367 9.46323 32.8067 9.21656 32.5C8.97656 32.1933 8.85656 31.83 8.85656 31.41C8.85656 31.1367 8.90323 30.8733 8.99656 30.62C9.0899 30.3667 9.2299 30.1433 9.41656 29.95C9.59656 29.7567 9.82323 29.6033 10.0966 29.49C10.3699 29.3767 10.6899 29.32 11.0566 29.32C11.3299 29.32 11.6032 29.3533 11.8766 29.42C12.1566 29.4867 12.3966 29.5733 12.5966 29.68C12.5499 29.8133 12.5066 29.94 12.4666 30.06C12.4266 30.18 12.3832 30.3033 12.3366 30.43C12.2099 30.3633 12.0566 30.31 11.8766 30.27C11.6966 30.23 11.4999 30.21 11.2866 30.21C11.1066 30.21 10.9332 30.2333 10.7666 30.28C10.6066 30.3267 10.4666 30.3967 10.3466 30.49C10.2199 30.5833 10.1166 30.6967 10.0366 30.83C9.96323 30.9633 9.92656 31.1133 9.92656 31.28C9.92656 31.44 9.96656 31.5767 10.0466 31.69C10.1266 31.7967 10.2266 31.8867 10.3466 31.96C10.4666 32.04 10.5932 32.11 10.7266 32.17C10.8599 32.2233 10.9832 32.2767 11.0966 32.33C11.1632 32.3567 11.2932 32.4133 11.4866 32.5C11.6799 32.58 11.8799 32.7 12.0866 32.86C12.2866 33.02 12.4632 33.22 12.6166 33.46C12.7766 33.6933 12.8566 33.9733 12.8566 34.3C12.8566 34.5533 12.8166 34.7833 12.7366 34.99ZM13.342 29.44H17.942C18.0886 29.44 18.162 29.5333 18.162 29.72C18.162 30.1467 18.0286 30.36 17.762 30.36H16.312V35.31C16.312 36.1167 16.082 36.52 15.622 36.52H15.472C15.2786 36.52 15.182 36.4233 15.182 36.23V30.36H13.342V29.44ZM22.7602 30.33C22.9002 30.51 23.0102 30.7067 23.0902 30.92C23.1768 31.1267 23.2435 31.3433 23.2902 31.57C23.3368 31.7967 23.3668 32.0267 23.3802 32.26C23.3935 32.4867 23.4002 32.71 23.4002 32.93C23.4002 33.47 23.3435 33.96 23.2302 34.4C23.1235 34.84 22.9635 35.2167 22.7502 35.53C22.5302 35.85 22.2568 36.0967 21.9302 36.27C21.6102 36.4367 21.2402 36.52 20.8202 36.52C20.2668 36.52 19.8135 36.4167 19.4602 36.21C19.1068 36.0033 18.8302 35.73 18.6302 35.39C18.4302 35.05 18.2902 34.6667 18.2102 34.24C18.1368 33.8067 18.1002 33.37 18.1002 32.93C18.1002 32.39 18.1535 31.9 18.2602 31.46C18.3735 31.0133 18.5402 30.6333 18.7602 30.32C18.9802 30.0067 19.2568 29.7667 19.5902 29.6C19.9235 29.4267 20.3135 29.34 20.7602 29.34C21.6002 29.34 22.2668 29.67 22.7602 30.33ZM22.2502 32.87C22.2502 32.4633 22.2202 32.1 22.1602 31.78C22.1068 31.4533 22.0202 31.1767 21.9002 30.95C21.7802 30.7233 21.6235 30.55 21.4302 30.43C21.2435 30.3033 21.0168 30.24 20.7502 30.24C20.2302 30.24 19.8502 30.4533 19.6102 30.88C19.3768 31.3 19.2602 31.9633 19.2602 32.87C19.2602 33.1767 19.2768 33.4867 19.3102 33.8C19.3435 34.1133 19.4135 34.3967 19.5202 34.65C19.6202 34.91 19.7668 35.1233 19.9602 35.29C20.1602 35.45 20.4235 35.53 20.7502 35.53C21.0235 35.53 21.2535 35.4667 21.4402 35.34C21.6335 35.2133 21.7902 35.0333 21.9102 34.8C22.0302 34.5733 22.1168 34.2967 22.1702 33.97C22.2235 33.6433 22.2502 33.2767 22.2502 32.87ZM28.0091 36.37C27.8157 36.1033 27.6357 35.8567 27.4691 35.63C27.3024 35.3967 27.1357 35.1667 26.9691 34.94C26.8024 34.72 26.6357 34.4967 26.4691 34.27C26.3024 34.0367 26.1257 33.7867 25.9391 33.52H25.3991V35.22C25.3991 36.02 25.1724 36.42 24.7191 36.42H24.5591C24.4191 36.42 24.3391 36.3767 24.3191 36.29C24.3057 36.2033 24.2991 36.1033 24.2991 35.99V29.38H26.5391C26.8657 29.38 27.1724 29.4033 27.4591 29.45C27.7524 29.4967 28.0091 29.59 28.2291 29.73C28.4424 29.8767 28.6124 30.0867 28.7391 30.36C28.8657 30.6333 28.9291 31 28.9291 31.46C28.9291 32.0333 28.7891 32.4967 28.5091 32.85C28.2357 33.1967 27.7691 33.42 27.1091 33.52C27.4224 33.92 27.7391 34.3167 28.0591 34.71C28.3791 35.0967 28.6957 35.49 29.0091 35.89C29.0491 35.9433 29.0757 35.9933 29.0891 36.04C29.1091 36.0867 29.1191 36.1267 29.1191 36.16C29.1191 36.3 28.9957 36.37 28.7491 36.37H28.0091ZM25.3991 32.83H26.4291C26.8691 32.83 27.2091 32.72 27.4491 32.5C27.6957 32.2733 27.8191 31.9233 27.8191 31.45C27.8191 31.2167 27.7991 31.0167 27.7591 30.85C27.7257 30.6833 27.6657 30.5467 27.5791 30.44C27.4857 30.34 27.3557 30.2667 27.1891 30.22C27.0291 30.1667 26.8257 30.14 26.5791 30.14H25.3991V32.83ZM31.9935 33.48V35.3C31.9935 36.1067 31.7635 36.51 31.3035 36.51H31.1535C30.9602 36.51 30.8635 36.4133 30.8635 36.22V33.48L28.7835 29.43H30.0435L31.4935 32.5L32.9435 29.43H34.0835L31.9935 33.48Z" fill="white"/>
</svg>
