<svg width="155" height="36" viewBox="0 0 155 36" fill="none" xmlns="http://www.w3.org/2000/svg">
<g id="_?&#235;&#141;&#137;&#236;&#148;&#160;??1" clip-path="url(#clip0_57_343)">
<path id="Vector" d="M118.618 20.8104C118.618 13.3504 125.168 11.1904 130.958 11.1904C136.748 11.1904 143.298 13.3404 143.298 20.8104V25.5004C143.298 32.9604 136.618 35.1204 130.958 35.1204C125.298 35.1204 118.618 32.9704 118.618 25.5004V20.8104ZM134.748 20.5004C134.748 18.0404 132.788 17.0604 130.958 17.0604C129.128 17.0604 127.168 18.0304 127.168 20.5004V25.8104C127.168 28.2704 129.128 29.2504 130.958 29.2504C132.788 29.2504 134.748 28.2804 134.748 25.8104V20.5004Z" fill="#FFD769"/>
<path id="Vector_2" d="M99.0882 34.5405H92.3182L91.8882 32.2905C90.2282 34.0605 87.8082 35.1305 84.6982 35.1305C79.0782 35.1305 74.3182 32.8805 74.3182 25.5705V20.7905C74.3182 13.4805 79.0882 11.2305 84.6982 11.2305C87.0382 11.2305 88.9582 11.8505 90.4482 12.8605V7.07047C90.4482 4.78047 92.5382 3.61047 94.7882 3.61047C97.0382 3.61047 99.0882 4.79047 99.0882 7.07047V34.5405ZM83.0882 26.0505C83.0882 28.4105 85.2582 29.2005 86.7482 29.2005C88.2382 29.2005 90.4482 28.4005 90.4482 26.0505V20.1305C90.4482 17.9105 88.1982 17.1505 86.7482 17.1505C85.2982 17.1505 83.0882 17.9505 83.0882 20.3005V26.0505Z" fill="#FFD769"/>
<path id="Vector_3" d="M109.388 35.0804C100.988 35.0804 97.8382 28.5104 97.7682 24.0904V15.5804C97.7682 13.1604 99.6882 11.1904 102.068 11.1904C104.448 11.1904 106.368 13.1504 106.368 15.5804V23.9104C106.538 26.3004 108.538 26.3004 109.388 26.3004C110.238 26.3004 112.238 26.3004 112.408 23.9104V15.5804C112.408 13.1604 114.328 11.1904 116.708 11.1904C119.088 11.1904 121.008 13.1504 121.008 15.5804V24.0204C120.938 28.5104 117.788 35.0804 109.388 35.0804ZM112.408 23.8604C112.408 23.8604 112.408 23.8604 112.408 23.8804C112.408 23.8804 112.408 23.8704 112.408 23.8604Z" fill="#FFD769"/>
<path id="Vector_4" d="M25.1282 20.1304C25.1282 12.6704 31.6782 10.5104 37.4682 10.5104C43.2582 10.5104 49.8082 12.6604 49.8082 20.1304V24.8204C49.8082 32.2804 43.1282 34.4404 37.4682 34.4404C31.8082 34.4404 25.1282 32.2904 25.1282 24.8204V20.1304ZM41.2582 19.8204C41.2582 17.3604 39.2982 16.3804 37.4682 16.3804C35.6382 16.3804 33.6782 17.3504 33.6782 19.8204V25.1304C33.6782 27.5904 35.6382 28.5704 37.4682 28.5704C39.2982 28.5704 41.2582 27.6004 41.2582 25.1304V19.8204Z" fill="#FF8700"/>
<path id="Vector_5" d="M62.5282 33.8904L62.1882 32.4304C60.5682 33.6804 58.2682 34.4804 55.7182 34.4804H54.7782C51.2482 34.4804 46.0582 32.9204 46.0582 27.1404C46.0582 21.3604 50.9482 19.8704 56.4882 19.8704H60.8682C60.7882 16.8404 58.9982 16.2904 56.9482 16.2904C55.9682 16.2904 55.1182 16.4304 54.0982 16.6704C53.4182 16.8404 52.8682 17.0904 52.0982 17.3704C50.5682 18.0004 48.3082 17.5104 47.5482 16.1204C46.7382 14.7304 47.4182 13.3004 48.9082 12.4004C51.1582 11.0404 54.7382 10.5204 57.6282 10.5204C63.7982 10.5204 69.2482 12.2904 69.2482 20.7804V33.8904H62.5282ZM60.8682 24.9904H56.9982C55.3782 24.9904 54.4882 25.6504 54.4882 27.1104C54.4882 28.5704 55.3782 29.1304 56.8682 29.1304H57.4682C59.0382 29.1304 60.8682 28.3704 60.8682 26.5904V24.9904Z" fill="#FF8700"/>
<path id="Vector_6" d="M13.4182 3.44043H7.07817C1.96817 3.44043 0.438171 4.94043 0.438171 8.94043V28.4904C0.438171 32.5004 1.96817 34.0004 7.07817 34.0004H13.4182C20.7782 34.0004 28.5282 30.7904 28.5282 21.1104V16.3404C28.5282 6.65043 20.7782 3.45043 13.4182 3.45043V3.44043ZM16.5682 25.5804V28.8604C10.7482 28.8604 5.98817 24.3604 5.54817 18.6504C5.51817 18.3704 5.50817 18.0904 5.50817 17.8004C5.50817 13.2304 9.20817 9.53043 13.7782 9.53043C18.3482 9.53043 22.0482 13.2304 22.0482 17.8004C22.0482 21.3904 19.7582 24.4404 16.5582 25.5804H16.5682Z" fill="#FF8700"/>
<path id="Vector_7" d="M143.308 5.94042C143.308 2.97042 145.718 0.560425 148.688 0.560425C151.658 0.560425 154.068 2.97042 154.068 5.94042C154.068 6.13042 154.068 6.31042 154.038 6.49042C153.758 10.2004 150.658 13.1304 146.878 13.1304V11.0004C144.798 10.2604 143.308 8.27042 143.308 5.94042Z" fill="#FF8700"/>
</g>
<defs>
<clipPath id="clip0_57_343">
<rect width="153.62" height="34.57" fill="white" transform="translate(0.438171 0.560425)"/>
</clipPath>
</defs>
</svg>
