<svg width="90" height="63" viewBox="0 0 90 63" fill="none" xmlns="http://www.w3.org/2000/svg">
<g clip-path="url(#clip0_92_1623)">
<path d="M86.12 41.8899H82.67V35.9599C82.67 35.0399 83.42 34.2899 84.34 34.2899C85.38 34.2899 86.51 34.2299 87.5 34.6399C88.67 35.1199 89.39 36.3099 89.39 37.5599V38.6099C89.39 40.4199 87.92 41.8799 86.12 41.8799V41.8899Z" fill="white"/>
<path d="M57.8 47.71C57.8 40.25 64.35 38.09 70.14 38.09C75.93 38.09 82.48 40.24 82.48 47.71V52.4C82.48 59.86 75.8 62.02 70.14 62.02C64.48 62.02 57.8 59.87 57.8 52.4V47.71ZM73.93 47.4C73.93 44.94 71.97 43.96 70.14 43.96C68.31 43.96 66.35 44.93 66.35 47.4V52.71C66.35 55.17 68.31 56.15 70.14 56.15C71.97 56.15 73.93 55.18 73.93 52.71V47.4Z" fill="white"/>
<path d="M28.4 61.44H21.63L21.2 59.19C19.54 60.96 17.12 62.03 14.01 62.03C8.39001 62.03 3.63 59.78 3.63 52.47V47.69C3.63 40.38 8.4 38.13 14.01 38.13C16.35 38.13 18.27 38.75 19.76 39.76V33.97C19.76 31.68 21.85 30.51 24.1 30.51C26.35 30.51 28.4 31.69 28.4 33.97V61.44ZM12.4 52.95C12.4 55.31 14.57 56.1 16.06 56.1C17.55 56.1 19.76 55.3 19.76 52.95V47.03C19.76 44.81 17.51 44.05 16.06 44.05C14.61 44.05 12.4 44.85 12.4 47.2V52.95Z" fill="white"/>
<path d="M43.1 61.98C34.7 61.98 31.55 55.41 31.48 50.99V42.48C31.48 40.06 33.4 38.09 35.78 38.09C38.16 38.09 40.08 40.05 40.08 42.48V50.81C40.25 53.2 42.25 53.2 43.1 53.2C43.95 53.2 45.95 53.2 46.12 50.81V42.48C46.12 40.06 48.04 38.09 50.42 38.09C52.8 38.09 54.72 40.05 54.72 42.48V50.92C54.65 55.41 51.5 61.98 43.1 61.98ZM46.12 50.76C46.12 50.76 46.12 50.76 46.12 50.78C46.12 50.78 46.12 50.77 46.12 50.76Z" fill="white"/>
<path d="M33.12 16.22C33.12 8.75997 39.67 6.59998 45.46 6.59998C51.25 6.59998 57.8 8.74997 57.8 16.22V20.91C57.8 28.37 51.12 30.53 45.46 30.53C39.8 30.53 33.12 28.38 33.12 20.91V16.22ZM49.25 15.91C49.25 13.45 47.29 12.47 45.46 12.47C43.63 12.47 41.67 13.44 41.67 15.91V21.22C41.67 23.68 43.63 24.66 45.46 24.66C47.29 24.66 49.25 23.69 49.25 21.22V15.91Z" fill="white"/>
<path d="M75.89 29.97L75.55 28.51C73.93 29.76 71.63 30.56 69.08 30.56H68.14C64.61 30.56 59.42 29 59.42 23.22C59.42 17.44 64.31 15.95 69.85 15.95H74.23C74.15 12.92 72.36 12.37 70.31 12.37C69.33 12.37 68.48 12.51 67.46 12.75C66.78 12.92 66.23 13.17 65.46 13.45C63.93 14.08 61.67 13.59 60.91 12.2C60.1 10.81 60.78 9.37998 62.27 8.47998C64.52 7.11998 68.1 6.59998 70.99 6.59998C77.16 6.59998 82.61 8.36998 82.61 16.86V29.97H75.89ZM74.23 21.07H70.36C68.74 21.07 67.85 21.73 67.85 23.19C67.85 24.65 68.74 25.21 70.23 25.21H70.83C72.4 25.21 74.23 24.45 74.23 22.67V21.07Z" fill="white"/>
<path d="M15.12 0H10.27C5.17 0 3.63 1.5 3.63 5.51V23.9H5.04C4.86 23.68 4.77 23.41 4.78 23.14C4.8 22.78 5.01 22.44 5.34 22.23C5.59 22.07 5.9 21.98 6.23 21.98C6.61 21.98 6.97 22.1 7.24 22.32L9.18 23.9H17.04C15.35 22.34 11.08 18.05 11.08 14.62C11.08 10.34 14.05 7.98 17.72 7.98C21.39 7.98 24.36 10.34 24.36 14.62C24.36 18.9 17.72 24.51 17.72 24.51L8.95 24.53L6.84 22.8C6.54 22.55 6.01 22.53 5.67 22.75C5.33 22.97 5.3 23.35 5.6 23.6L6.73 24.53H0.72C0.32 24.53 0 24.76 0 25.05C0 25.34 0.32 25.57 0.72 25.57H5.47C5.7 25.57 5.89 25.71 5.89 25.88C5.89 26.05 5.7 26.19 5.47 26.19H0.72C0.32 26.19 0 26.42 0 26.71C0 27 0.32 27.23 0.72 27.23H5.47C5.7 27.23 5.89 27.37 5.89 27.54C5.89 27.71 5.7 27.85 5.47 27.85H0.72C0.32 27.85 0 28.08 0 28.37C0 28.66 0.32 28.89 0.72 28.89H5.47C5.7 28.89 5.89 29.03 5.89 29.2C5.89 29.37 5.7 29.51 5.47 29.51H0.72C0.32 29.51 0 29.74 0 30.03C0 30.32 0.32 30.55 0.72 30.55H15.12C16.9 30.55 18.52 30.51 20.41 30.1C22.3 29.69 23.89 28.02 25.13 26.88C26.37 25.74 27.8 24.08 28.64 22.56C29.48 21.04 30.23 18.23 30.23 16.92V12.89C30.23 3.21 22.48 0 15.12 0Z" fill="white"/>
</g>
<defs>
<clipPath id="clip0_92_1623">
<rect width="89.39" height="62.03" fill="white"/>
</clipPath>
</defs>
</svg>
