<svg width="19" height="29" viewBox="0 0 19 29" fill="none" xmlns="http://www.w3.org/2000/svg">
<path d="M17.504 0.461731H1.49153C1.49153 0.461731 1.48049 0.461731 1.47387 0.461731C1.42308 0.461731 1.37449 0.466148 1.32591 0.474981C1.31929 0.474981 1.31266 0.477189 1.30824 0.479398C1.26629 0.488231 1.22433 0.499272 1.18237 0.512522C1.16691 0.516939 1.15145 0.523564 1.13379 0.530189C1.10287 0.543439 1.07195 0.556689 1.04104 0.572147C1.02558 0.58098 1.01012 0.587605 0.994663 0.596438C0.98583 0.600855 0.979205 0.605272 0.970372 0.609688C0.943872 0.625147 0.91958 0.645021 0.895289 0.662688C0.886456 0.669313 0.877622 0.673729 0.870997 0.680354C0.831248 0.711271 0.795915 0.744396 0.76279 0.781937C0.753957 0.79077 0.747332 0.801812 0.738498 0.810645C0.714207 0.839353 0.692124 0.868061 0.67004 0.898978C0.661207 0.912228 0.652374 0.925478 0.643541 0.940936C0.623666 0.974061 0.605999 1.00719 0.590541 1.04252C0.586124 1.05356 0.579499 1.0646 0.575083 1.07564C0.555208 1.12202 0.53975 1.1706 0.528708 1.21918C0.528708 1.22139 0.5265 1.22581 0.5265 1.22802C0.5265 1.23685 0.524292 1.24568 0.522083 1.25452C0.51325 1.29206 0.508833 1.3296 0.504417 1.36935C0.504417 1.38702 0.502208 1.40247 0.502208 1.42014C0.502208 1.43339 0.5 1.44443 0.5 1.45768V21.0035C0.5 21.3789 0.711999 21.7212 1.04545 21.8913L14.0017 28.4323C14.143 28.503 14.2954 28.5383 14.4499 28.5383C14.631 28.5383 14.8121 28.4897 14.9711 28.3903C15.2648 28.2092 15.4437 27.889 15.4437 27.5445V21.9972H17.5063C18.0561 21.9972 18.5 21.5534 18.5 21.0035V1.45547C18.5 0.905603 18.0561 0.461731 17.5063 0.461731H17.504ZM13.454 25.9281L2.48528 20.3918V3.06975L13.454 8.60601V25.9258V25.9281ZM16.5103 20.0098H15.4415V7.99872C15.4415 7.62331 15.2295 7.28102 14.896 7.11098L5.66526 2.44922H16.5103V20.0076V20.0098Z" fill="white"/>
<path d="M11.4157 14.8931C10.8349 14.8931 10.3624 15.5401 10.3624 16.3395C10.3624 17.1389 10.8327 17.786 11.4157 17.786C11.9987 17.786 12.4691 17.1389 12.4691 16.3395C12.4691 15.5401 11.9987 14.8931 11.4157 14.8931Z" fill="white"/>
</svg>
