<svg width="39" height="29" viewBox="0 0 39 29" fill="none" xmlns="http://www.w3.org/2000/svg">
<g clip-path="url(#clip0_73_647)">
<path d="M28.4862 0.631745C28.4862 0.580915 28.4724 0.530085 28.4586 0.479255C28.4379 0.428425 28.4172 0.384857 28.3896 0.341288C28.3758 0.312242 28.3689 0.283197 28.3413 0.254151C28.3413 0.24689 28.3275 0.24689 28.3206 0.239628C28.286 0.19606 28.2446 0.167014 28.1963 0.137969C28.1618 0.116184 28.1342 0.0871387 28.0997 0.0726159C28.0583 0.0508317 28.0169 0.0435702 27.9755 0.0363088C27.9271 0.021786 27.8857 0.00726318 27.8374 0.00726318C27.8305 0.00726318 27.8167 0.00726318 27.8098 0.00726318H11.1902C11.1902 0.00726318 11.1695 0.00726318 11.1626 0.00726318C11.1143 0.00726318 11.0729 0.021786 11.0245 0.0363088C10.9831 0.0508316 10.9417 0.0508317 10.9003 0.0726159C10.8658 0.0871387 10.8382 0.116184 10.8037 0.137969C10.7623 0.167014 10.7209 0.19606 10.6863 0.239628C10.6863 0.239628 10.6725 0.24689 10.6656 0.254151C10.6449 0.283197 10.638 0.312242 10.6173 0.341288C10.5897 0.384857 10.5621 0.428425 10.5483 0.479255C10.5345 0.530085 10.5276 0.580915 10.5207 0.631745C10.5207 0.668052 10.5 0.697097 10.5 0.726143V13.2739C10.5 13.6732 10.8106 14 11.1902 14H27.8098C28.1894 14 28.5 13.6732 28.5 13.2739V0.726143C28.5 0.726143 28.4862 0.66079 28.4793 0.631745H28.4862ZM25.9325 1.45228L19.5 7.1888L13.0744 1.45228H25.9325ZM11.8804 12.5477V2.29461L19.0583 8.69917C19.1894 8.81535 19.3482 8.87345 19.5069 8.87345C19.6656 8.87345 19.8244 8.81535 19.9555 8.69917L27.1196 2.29461V12.5477H11.8804Z" fill="white"/>
</g>
<path d="M6.57 20.45C6.69667 21.55 6.82333 22.6467 6.95 23.74C7.07667 24.8267 7.20333 25.9233 7.33 27.03C7.33 27.05 7.33 27.07 7.33 27.09C7.33667 27.1033 7.34 27.1167 7.34 27.13C7.34 27.23 7.31333 27.3033 7.26 27.35C7.20667 27.3967 7.13333 27.42 7.04 27.42H6.26C6.17333 26.5667 6.09 25.7133 6.01 24.86C5.93 24.0067 5.84667 23.15 5.76 22.29C5.21333 23.9967 4.65667 25.7067 4.09 27.42H3.33C3.05 26.5533 2.77333 25.6933 2.5 24.84C2.23333 23.98 1.96 23.1133 1.68 22.24C1.6 22.9067 1.51667 23.62 1.43 24.38C1.35 25.14 1.26333 25.95 1.17 26.81C1.12333 27.2167 0.913333 27.42 0.54 27.42H0.15C0.283333 26.2533 0.416667 25.0933 0.55 23.94C0.683333 22.78 0.816667 21.6167 0.95 20.45H2.14C2.40667 21.3367 2.67333 22.2167 2.94 23.09C3.20667 23.9567 3.47 24.8333 3.73 25.72C4.01 24.8333 4.29 23.9567 4.57 23.09C4.85 22.2167 5.13 21.3367 5.41 20.45H6.57ZM11.9884 20.45C12.135 20.45 12.2084 20.5433 12.2084 20.73C12.2084 20.95 12.1717 21.11 12.0984 21.21C12.025 21.31 11.9284 21.36 11.8084 21.36H9.25836V23.42H11.7584C11.905 23.42 11.9784 23.5167 11.9784 23.71C11.9784 23.9167 11.9417 24.0667 11.8684 24.16C11.795 24.2533 11.6984 24.3 11.5784 24.3H9.25836V26.09C9.25836 26.25 9.29169 26.36 9.35836 26.42C9.42503 26.48 9.53836 26.51 9.69836 26.51H11.9884C12.135 26.51 12.2084 26.6067 12.2084 26.8C12.2084 27.0133 12.1717 27.17 12.0984 27.27C12.025 27.37 11.9284 27.42 11.8084 27.42H9.15836C8.46503 27.42 8.11836 27.0767 8.11836 26.39V20.45H11.9884ZM16.8186 25.99C16.7519 26.2633 16.6486 26.4933 16.5086 26.68C16.3753 26.8667 16.2186 27.0167 16.0386 27.13C15.8519 27.25 15.6519 27.34 15.4386 27.4C15.2319 27.4533 15.0253 27.4867 14.8186 27.5H14.6286H14.5286C14.4153 27.5 14.2586 27.4933 14.0586 27.48C13.8586 27.4667 13.6619 27.4367 13.4686 27.39C13.2753 27.35 13.1053 27.2933 12.9586 27.22C12.8119 27.14 12.7386 27.0333 12.7386 26.9C12.7386 26.8667 12.7453 26.8167 12.7586 26.75C12.7719 26.6833 12.7919 26.6167 12.8186 26.55C12.8453 26.4833 12.8786 26.4267 12.9186 26.38C12.9586 26.3267 13.0053 26.3 13.0586 26.3C13.1119 26.3 13.1786 26.31 13.2586 26.33C13.5586 26.4033 13.7986 26.4567 13.9786 26.49C14.1653 26.5167 14.3053 26.53 14.3986 26.53C14.4986 26.53 14.6286 26.5167 14.7886 26.49C14.9486 26.4633 15.1019 26.41 15.2486 26.33C15.3953 26.2567 15.5219 26.1567 15.6286 26.03C15.7353 25.8967 15.7886 25.73 15.7886 25.53C15.7886 25.3233 15.7519 25.16 15.6786 25.04C15.6119 24.9133 15.5153 24.8067 15.3886 24.72C15.2619 24.6333 15.1053 24.5533 14.9186 24.48C14.7386 24.4 14.5353 24.3033 14.3086 24.19C13.8819 24.0367 13.5453 23.8067 13.2986 23.5C13.0586 23.1933 12.9386 22.83 12.9386 22.41C12.9386 22.1367 12.9853 21.8733 13.0786 21.62C13.1719 21.3667 13.3119 21.1433 13.4986 20.95C13.6786 20.7567 13.9053 20.6033 14.1786 20.49C14.4519 20.3767 14.7719 20.32 15.1386 20.32C15.4119 20.32 15.6853 20.3533 15.9586 20.42C16.2386 20.4867 16.4786 20.5733 16.6786 20.68C16.6319 20.8133 16.5886 20.94 16.5486 21.06C16.5086 21.18 16.4653 21.3033 16.4186 21.43C16.2919 21.3633 16.1386 21.31 15.9586 21.27C15.7786 21.23 15.5819 21.21 15.3686 21.21C15.1886 21.21 15.0153 21.2333 14.8486 21.28C14.6886 21.3267 14.5486 21.3967 14.4286 21.49C14.3019 21.5833 14.1986 21.6967 14.1186 21.83C14.0453 21.9633 14.0086 22.1133 14.0086 22.28C14.0086 22.44 14.0486 22.5767 14.1286 22.69C14.2086 22.7967 14.3086 22.8867 14.4286 22.96C14.5486 23.04 14.6753 23.11 14.8086 23.17C14.9419 23.2233 15.0653 23.2767 15.1786 23.33C15.2453 23.3567 15.3753 23.4133 15.5686 23.5C15.7619 23.58 15.9619 23.7 16.1686 23.86C16.3686 24.02 16.5453 24.22 16.6986 24.46C16.8586 24.6933 16.9386 24.9733 16.9386 25.3C16.9386 25.5533 16.8986 25.7833 16.8186 25.99ZM21.594 25.99C21.5273 26.2633 21.424 26.4933 21.284 26.68C21.1507 26.8667 20.994 27.0167 20.814 27.13C20.6273 27.25 20.4273 27.34 20.214 27.4C20.0073 27.4533 19.8007 27.4867 19.594 27.5H19.404H19.304C19.1907 27.5 19.034 27.4933 18.834 27.48C18.634 27.4667 18.4373 27.4367 18.244 27.39C18.0507 27.35 17.8807 27.2933 17.734 27.22C17.5873 27.14 17.514 27.0333 17.514 26.9C17.514 26.8667 17.5207 26.8167 17.534 26.75C17.5473 26.6833 17.5673 26.6167 17.594 26.55C17.6207 26.4833 17.654 26.4267 17.694 26.38C17.734 26.3267 17.7807 26.3 17.834 26.3C17.8873 26.3 17.954 26.31 18.034 26.33C18.334 26.4033 18.574 26.4567 18.754 26.49C18.9407 26.5167 19.0807 26.53 19.174 26.53C19.274 26.53 19.404 26.5167 19.564 26.49C19.724 26.4633 19.8773 26.41 20.024 26.33C20.1707 26.2567 20.2973 26.1567 20.404 26.03C20.5107 25.8967 20.564 25.73 20.564 25.53C20.564 25.3233 20.5273 25.16 20.454 25.04C20.3873 24.9133 20.2907 24.8067 20.164 24.72C20.0373 24.6333 19.8807 24.5533 19.694 24.48C19.514 24.4 19.3107 24.3033 19.084 24.19C18.6573 24.0367 18.3207 23.8067 18.074 23.5C17.834 23.1933 17.714 22.83 17.714 22.41C17.714 22.1367 17.7607 21.8733 17.854 21.62C17.9473 21.3667 18.0873 21.1433 18.274 20.95C18.454 20.7567 18.6807 20.6033 18.954 20.49C19.2273 20.3767 19.5473 20.32 19.914 20.32C20.1873 20.32 20.4607 20.3533 20.734 20.42C21.014 20.4867 21.254 20.5733 21.454 20.68C21.4073 20.8133 21.364 20.94 21.324 21.06C21.284 21.18 21.2407 21.3033 21.194 21.43C21.0673 21.3633 20.914 21.31 20.734 21.27C20.554 21.23 20.3573 21.21 20.144 21.21C19.964 21.21 19.7907 21.2333 19.624 21.28C19.464 21.3267 19.324 21.3967 19.204 21.49C19.0773 21.5833 18.974 21.6967 18.894 21.83C18.8207 21.9633 18.784 22.1133 18.784 22.28C18.784 22.44 18.824 22.5767 18.904 22.69C18.984 22.7967 19.084 22.8867 19.204 22.96C19.324 23.04 19.4507 23.11 19.584 23.17C19.7173 23.2233 19.8407 23.2767 19.954 23.33C20.0207 23.3567 20.1507 23.4133 20.344 23.5C20.5373 23.58 20.7373 23.7 20.944 23.86C21.144 24.02 21.3207 24.22 21.474 24.46C21.634 24.6933 21.714 24.9733 21.714 25.3C21.714 25.5533 21.674 25.7833 21.594 25.99ZM24.5241 20.44H25.5641L27.8341 26.72C28.0007 27.1867 27.9241 27.42 27.6041 27.42H26.8941L26.3641 25.76H23.6841L23.2941 26.9C23.1741 27.2467 22.9407 27.42 22.5941 27.42H22.0041L24.5241 20.44ZM25.0441 21.49L23.9341 24.97H26.1541L25.0441 21.49ZM30.6955 24.33V23.51H32.9255V27.17C32.6522 27.31 32.3589 27.4033 32.0455 27.45C31.7322 27.4967 31.3755 27.52 30.9755 27.52C30.4022 27.52 29.9189 27.4267 29.5255 27.24C29.1322 27.0533 28.8155 26.7967 28.5755 26.47C28.3289 26.15 28.1522 25.77 28.0455 25.33C27.9389 24.89 27.8855 24.4133 27.8855 23.9C27.8855 23.46 27.9422 23.03 28.0555 22.61C28.1689 22.1833 28.3522 21.8 28.6055 21.46C28.8522 21.1267 29.1689 20.86 29.5555 20.66C29.9422 20.4533 30.4122 20.35 30.9655 20.35C31.0855 20.35 31.2255 20.3567 31.3855 20.37C31.5455 20.3767 31.7122 20.3933 31.8855 20.42C32.0589 20.4533 32.2322 20.4933 32.4055 20.54C32.5789 20.5867 32.7389 20.6467 32.8855 20.72C32.8189 20.8533 32.7555 20.99 32.6955 21.13C32.6355 21.2633 32.5722 21.3967 32.5055 21.53C32.4255 21.4967 32.3289 21.47 32.2155 21.45C32.1089 21.4233 31.9955 21.4 31.8755 21.38C31.7555 21.3667 31.6355 21.3567 31.5155 21.35C31.3955 21.3367 31.2855 21.33 31.1855 21.33C30.8122 21.33 30.4889 21.4067 30.2155 21.56C29.9489 21.7067 29.7289 21.9 29.5555 22.14C29.3822 22.3867 29.2522 22.67 29.1655 22.99C29.0855 23.3033 29.0455 23.6267 29.0455 23.96C29.0455 24.1133 29.0522 24.2867 29.0655 24.48C29.0855 24.6667 29.1189 24.8567 29.1655 25.05C29.2122 25.2433 29.2789 25.43 29.3655 25.61C29.4522 25.79 29.5655 25.95 29.7055 26.09C29.8455 26.2367 30.0155 26.3533 30.2155 26.44C30.4155 26.5267 30.6522 26.57 30.9255 26.57C31.1055 26.57 31.2855 26.5567 31.4655 26.53C31.6522 26.4967 31.7922 26.4633 31.8855 26.43V24.33H30.6955ZM37.8868 20.45C38.0335 20.45 38.1068 20.5433 38.1068 20.73C38.1068 20.95 38.0701 21.11 37.9968 21.21C37.9235 21.31 37.8268 21.36 37.7068 21.36H35.1568V23.42H37.6568C37.8035 23.42 37.8768 23.5167 37.8768 23.71C37.8768 23.9167 37.8401 24.0667 37.7668 24.16C37.6935 24.2533 37.5968 24.3 37.4768 24.3H35.1568V26.09C35.1568 26.25 35.1901 26.36 35.2568 26.42C35.3235 26.48 35.4368 26.51 35.5968 26.51H37.8868C38.0335 26.51 38.1068 26.6067 38.1068 26.8C38.1068 27.0133 38.0701 27.17 37.9968 27.27C37.9235 27.37 37.8268 27.42 37.7068 27.42H35.0568C34.3635 27.42 34.0168 27.0767 34.0168 26.39V20.45H37.8868Z" fill="white"/>
<defs>
<clipPath id="clip0_73_647">
<rect width="18" height="14" fill="white" transform="translate(10.5)"/>
</clipPath>
</defs>
</svg>
