<svg width="30" height="39" viewBox="0 0 30 39" fill="none" xmlns="http://www.w3.org/2000/svg">
<circle cx="15" cy="6" r="6" fill="white"/>
<path d="M3 22.6957C3 17.8932 6.89318 14 11.6957 14H18.3043C23.1068 14 27 17.8932 27 22.6957V22.6957C27 23.416 26.416 24 25.6957 24H4.30435C3.58398 24 3 23.416 3 22.6957V22.6957Z" fill="white"/>
<path d="M15.1345 30.45C15.2611 31.55 15.3878 32.6467 15.5145 33.74C15.6411 34.8267 15.7678 35.9233 15.8945 37.03C15.8945 37.05 15.8945 37.07 15.8945 37.09C15.9011 37.1033 15.9045 37.1167 15.9045 37.13C15.9045 37.23 15.8778 37.3033 15.8245 37.35C15.7711 37.3967 15.6978 37.42 15.6045 37.42H14.8245C14.7378 36.5667 14.6545 35.7133 14.5745 34.86C14.4945 34.0067 14.4111 33.15 14.3245 32.29C13.7778 33.9967 13.2211 35.7067 12.6545 37.42H11.8945C11.6145 36.5533 11.3378 35.6933 11.0645 34.84C10.7978 33.98 10.5245 33.1133 10.2445 32.24C10.1645 32.9067 10.0811 33.62 9.99445 34.38C9.91445 35.14 9.82779 35.95 9.73445 36.81C9.68779 37.2167 9.47779 37.42 9.10445 37.42H8.71445C8.84779 36.2533 8.98112 35.0933 9.11445 33.94C9.24779 32.78 9.38112 31.6167 9.51445 30.45H10.7045C10.9711 31.3367 11.2378 32.2167 11.5045 33.09C11.7711 33.9567 12.0345 34.8333 12.2945 35.72C12.5745 34.8333 12.8545 33.9567 13.1345 33.09C13.4145 32.2167 13.6945 31.3367 13.9745 30.45H15.1345ZM19.0248 34.48V36.3C19.0248 37.1067 18.7948 37.51 18.3348 37.51H18.1848C17.9914 37.51 17.8948 37.4133 17.8948 37.22V34.48L15.8148 30.43H17.0748L18.5248 33.5L19.9748 30.43H21.1148L19.0248 34.48Z" fill="white"/>
</svg>
