<svg width="30" height="30" viewBox="0 0 30 30" fill="none" xmlns="http://www.w3.org/2000/svg">
<path d="M15 0C6.7299 0 0 6.7299 0 15C0 23.2701 6.7299 30 15 30C23.2701 30 30 23.2701 30 15C30 6.7299 23.2701 0 15 0ZM16.1254 27.6945V23.0707C16.1254 22.4502 15.6206 21.9453 15 21.9453C14.3794 21.9453 13.8746 22.4502 13.8746 23.0707V27.6945C7.74277 27.1543 2.84244 22.2572 2.30225 16.1222H6.92605C7.54662 16.1222 8.05145 15.6174 8.05145 14.9968C8.05145 14.3762 7.54662 13.8714 6.92605 13.8714H2.30225C2.84244 7.74276 7.73955 2.84244 13.8746 2.30225V6.92605C13.8746 7.54662 14.3794 8.05145 15 8.05145C15.6206 8.05145 16.1254 7.54662 16.1254 6.92605V2.30225C22.2572 2.84244 27.1576 7.73955 27.6977 13.8746H23.074C22.4534 13.8746 21.9486 14.3794 21.9486 15C21.9486 15.6206 22.4534 16.1254 23.074 16.1254H27.6977C27.1576 22.2572 22.2604 27.1576 16.1254 27.6977V27.6945Z" fill="#FF8800"/>
<path d="M15 16.51C15.834 16.51 16.51 15.834 16.51 15C16.51 14.1661 15.834 13.4901 15 13.4901C14.1661 13.4901 13.4901 14.1661 13.4901 15C13.4901 15.834 14.1661 16.51 15 16.51Z" fill="#FF8800"/>
</svg>
