<svg width="34" height="31" viewBox="0 0 34 31" fill="none" xmlns="http://www.w3.org/2000/svg">
<g clip-path="url(#clip0_73_651)">
<path d="M16.9928 16L9.23914 9.49548C7.1232 7.53541 6.90581 4.10891 8.74639 1.85846C10.5725 -0.391994 13.7754 -0.624299 15.8768 1.33577L17.0073 2.38115L18.1377 1.33577C20.2391 -0.624299 23.4275 -0.391994 25.2681 1.85846C27.0942 4.10891 26.8768 7.53541 24.7754 9.49548L17.0073 16H16.9928Z" fill="white"/>
</g>
<path d="M4.22 29.37C4.02667 29.1033 3.84667 28.8567 3.68 28.63C3.51333 28.3967 3.34667 28.1667 3.18 27.94C3.01333 27.72 2.84667 27.4967 2.68 27.27C2.51333 27.0367 2.33667 26.7867 2.15 26.52H1.61V28.22C1.61 29.02 1.38333 29.42 0.93 29.42H0.77C0.63 29.42 0.55 29.3767 0.53 29.29C0.516667 29.2033 0.51 29.1033 0.51 28.99V22.38H2.75C3.07667 22.38 3.38333 22.4033 3.67 22.45C3.96333 22.4967 4.22 22.59 4.44 22.73C4.65333 22.8767 4.82333 23.0867 4.95 23.36C5.07667 23.6333 5.14 24 5.14 24.46C5.14 25.0333 5 25.4967 4.72 25.85C4.44667 26.1967 3.98 26.42 3.32 26.52C3.63333 26.92 3.95 27.3167 4.27 27.71C4.59 28.0967 4.90667 28.49 5.22 28.89C5.26 28.9433 5.28667 28.9933 5.3 29.04C5.32 29.0867 5.33 29.1267 5.33 29.16C5.33 29.3 5.20667 29.37 4.96 29.37H4.22ZM1.61 25.83H2.64C3.08 25.83 3.42 25.72 3.66 25.5C3.90667 25.2733 4.03 24.9233 4.03 24.45C4.03 24.2167 4.01 24.0167 3.97 23.85C3.93667 23.6833 3.87667 23.5467 3.79 23.44C3.69667 23.34 3.56667 23.2667 3.4 23.22C3.24 23.1667 3.03667 23.14 2.79 23.14H1.61V25.83ZM9.93758 22.45C10.0842 22.45 10.1576 22.5433 10.1576 22.73C10.1576 22.95 10.1209 23.11 10.0476 23.21C9.97425 23.31 9.87758 23.36 9.75758 23.36H7.20758V25.42H9.70758C9.85424 25.42 9.92758 25.5167 9.92758 25.71C9.92758 25.9167 9.89091 26.0667 9.81758 26.16C9.74425 26.2533 9.64758 26.3 9.52758 26.3H7.20758V28.09C7.20758 28.25 7.24091 28.36 7.30758 28.42C7.37424 28.48 7.48758 28.51 7.64758 28.51H9.93758C10.0842 28.51 10.1576 28.6067 10.1576 28.8C10.1576 29.0133 10.1209 29.17 10.0476 29.27C9.97425 29.37 9.87758 29.42 9.75758 29.42H7.10758C6.41424 29.42 6.06758 29.0767 6.06758 28.39V22.45H9.93758ZM16.2378 22.44C15.8511 23.6067 15.4678 24.77 15.0878 25.93C14.7145 27.0833 14.3345 28.2433 13.9478 29.41H13.4178C13.1245 29.41 12.9245 29.21 12.8178 28.81C12.4578 27.7367 12.1011 26.6733 11.7478 25.62C11.3945 24.5667 11.0378 23.5067 10.6778 22.44H12.0078C12.2611 23.32 12.5145 24.1967 12.7678 25.07C13.0278 25.9367 13.2845 26.8133 13.5378 27.7C13.7911 26.8133 14.0411 25.9367 14.2878 25.07C14.5345 24.1967 14.7845 23.32 15.0378 22.44H16.2378ZM18.4018 28.33C18.4018 29.13 18.1718 29.53 17.7118 29.53H17.5518C17.3651 29.53 17.2718 29.4333 17.2718 29.24V22.46H18.4018V28.33ZM23.5118 22.45C23.6585 22.45 23.7318 22.5433 23.7318 22.73C23.7318 22.95 23.6951 23.11 23.6218 23.21C23.5485 23.31 23.4518 23.36 23.3318 23.36H20.7818V25.42H23.2818C23.4285 25.42 23.5018 25.5167 23.5018 25.71C23.5018 25.9167 23.4651 26.0667 23.3918 26.16C23.3185 26.2533 23.2218 26.3 23.1018 26.3H20.7818V28.09C20.7818 28.25 20.8151 28.36 20.8818 28.42C20.9485 28.48 21.0618 28.51 21.2218 28.51H23.5118C23.6585 28.51 23.7318 28.6067 23.7318 28.8C23.7318 29.0133 23.6951 29.17 23.6218 29.27C23.5485 29.37 23.4518 29.42 23.3318 29.42H20.6818C19.9885 29.42 19.6418 29.0767 19.6418 28.39V22.45H23.5118ZM32.312 22.44C32.032 23.6067 31.752 24.77 31.472 25.93C31.192 27.0833 30.912 28.2433 30.632 29.41H30.122C29.7887 29.41 29.562 29.19 29.442 28.75C29.2487 28.0167 29.0587 27.2867 28.872 26.56C28.6854 25.8267 28.4954 25.0933 28.302 24.36C28.002 25.48 27.742 26.46 27.522 27.3C27.302 28.1333 27.1154 28.8367 26.962 29.41H26.322C26.0354 29.41 25.842 29.1933 25.742 28.76C25.4887 27.7 25.2387 26.6467 24.992 25.6C24.7454 24.5533 24.4954 23.5 24.242 22.44H25.452L26.502 27.87C26.822 26.67 27.0954 25.6233 27.322 24.73C27.5487 23.83 27.732 23.0667 27.872 22.44H28.802C29.0287 23.3533 29.2554 24.2633 29.482 25.17C29.7087 26.07 29.9354 26.9767 30.162 27.89C30.3354 26.9767 30.512 26.07 30.692 25.17C30.872 24.2633 31.0487 23.3533 31.222 22.44H32.312Z" fill="white"/>
<defs>
<clipPath id="clip0_73_651">
<rect width="19" height="16" fill="white" transform="translate(7.5)"/>
</clipPath>
</defs>
</svg>
